<?xml version="1.0" encoding="UTF-8"?>
<svg width="15" height="15" id="Layer_2" data-name="Layer 2" xmlns="http://www.w3.org/2000/svg" viewBox="0 0 117.03 117.03">
  <defs>
    <style>
      .cls-1 {
        fill: #8e6554;
      }

      .cls-2 {
        fill: #cfc673;
      }
    </style>
  </defs>
  <g id="Layer_1-2" data-name="Layer 1">
    <g>
      <g>
        <path class="cls-1" d="M105.01,58.52c0,25.67-20.82,46.5-46.5,46.5S12.02,84.19,12.02,58.52,32.83,12.02,58.52,12.02s46.5,20.82,46.5,46.5Z"/>
        <path class="cls-1" d="M93,58.52c0,19.01-15.47,34.48-34.48,34.48s-34.49-15.47-34.49-34.48S39.5,24.03,58.52,24.03s34.48,15.47,34.48,34.49ZM58.52,0C26.25,0,0,26.25,0,58.52s26.25,58.51,58.52,58.51,58.51-26.25,58.51-58.51S90.78,0,58.52,0Z"/>
      </g>
      <path class="cls-2" d="M105.01,58.52c0,25.67-20.82,46.5-46.5,46.5S12.02,84.19,12.02,58.52,32.83,12.02,58.52,12.02s46.5,20.82,46.5,46.5Z"/>
    </g>
  </g>
</svg>