<?xml version="1.0" encoding="UTF-8"?>
<svg width="15" height="15"  id="Layer_2" data-name="Layer 2" xmlns="http://www.w3.org/2000/svg" viewBox="0 0 135.39 131.18">
  <defs>
    <style>
      .cls-1 {
        fill: #f9cbdf;
      }

      .cls-2 {
        fill: #ec008c;
      }

      .cls-3 {
        fill: #f49ac1;
      }
    </style>
  </defs>
  <g id="Layer_1-2" data-name="Layer 1">
    <g>
      <path class="cls-2" d="M134.1,48.14c-3.97-11.69-16.79-20.49-36.49-13.81-1.87,.63-3.71,1.41-5.52,2.25,.26-2.16,.41-4.32,.41-6.46,0-20.81-12.46-30.12-24.81-30.12s-24.8,9.32-24.8,30.12c0,1.97,.14,3.96,.36,5.95-1.95-.88-3.95-1.67-5.97-2.3-11.87-3.73-20.03-1.55-24.8,.94-5.45,2.85-9.5,7.71-11.37,13.71-3.7,11.78,1.46,26.46,21.3,32.7,1.93,.61,3.94,1.08,5.96,1.47-1.6,1.81-3.1,3.73-4.43,5.73-11.6,17.27-6.44,31.96,3.81,38.83,10.26,6.88,25.8,6.09,37.39-11.19,1.13-1.67,2.14-3.46,3.09-5.28,1.17,2.04,2.46,4.02,3.86,5.87,12.55,16.6,28.11,16.51,37.96,9.06s14.17-22.39,1.62-38.99c-1.01-1.33-2.11-2.61-3.26-3.86,1.75-.41,3.49-.86,5.16-1.44,19.71-6.68,24.52-21.48,20.54-33.18Z"/>
      <g>
        <g>
          <path class="cls-3" d="M79.02,111.3c-8.58-11.35-12.41-28.37-5.32-33.74,7.1-5.37,22.43,2.96,31.02,14.32,8.59,11.34,7.16,21.43,.07,26.79s-17.18,3.98-25.77-7.37Z"/>
          <path class="cls-3" d="M31.16,93.16c7.92-11.82,22.77-21,30.16-16.04,7.38,4.96,4.52,22.17-3.41,33.98-7.93,11.83-17.92,13.77-25.31,8.81-7.38-4.95-9.36-14.93-1.43-26.75Z"/>
          <path class="cls-3" d="M34.67,42.08c13.58,4.25,26.58,15.9,23.91,24.39-2.67,8.48-19.98,10.61-33.56,6.34-13.58-4.26-18.27-13.3-15.61-21.79,2.67-8.49,11.69-13.21,25.26-8.94Z"/>
          <path class="cls-3" d="M110.77,73.07c-13.48,4.58-30.84,2.86-33.71-5.55-2.86-8.43,9.86-20.37,23.34-24.94,13.48-4.58,22.6-.06,25.46,8.36,2.86,8.42-1.63,17.56-15.1,22.13Z"/>
          <path class="cls-3" d="M83.8,30.12c0,14.24-7.21,30.12-16.11,30.12s-16.11-15.88-16.11-30.12,7.21-21.42,16.11-21.42,16.11,7.18,16.11,21.42Z"/>
        </g>
        <path class="cls-1" d="M41.4,69.91c0-14.49,11.73-26.21,26.21-26.21s26.21,11.73,26.21,26.21-11.73,26.21-26.21,26.21-26.21-11.73-26.21-26.21Z"/>
      </g>
    </g>
  </g>
</svg>